<?xml version="1.0" standalone="no"?>
<!DOCTYPE svg PUBLIC "-//W3C//DTD SVG 20010904//EN"
 "http://www.w3.org/TR/2001/REC-SVG-20010904/DTD/svg10.dtd">
<svg version="1.0" xmlns="http://www.w3.org/2000/svg"
 width="70.000000pt" height="70.000000pt" viewBox="0 0 70.000000 70.000000"
 preserveAspectRatio="xMidYMid meet">
<metadata>
Created by potrace 1.14, written by Peter Selinger 2001-2017
</metadata>
<g transform="translate(0.000000,70.000000) scale(0.100000,-0.100000)"
fill="#000000" stroke="none">
<path d="M283 613 c-18 -2 -33 -8 -33 -14 0 -5 -7 -9 -15 -9 -9 0 -18 -7 -21
-15 -4 -8 -12 -15 -19 -15 -17 0 -61 -43 -70 -68 -3 -12 -10 -22 -15 -22 -5 0
-11 -13 -15 -30 -4 -16 -11 -30 -15 -30 -5 0 -12 -16 -16 -35 -3 -19 -10 -35
-15 -35 -5 0 -9 -7 -9 -15 0 -10 10 -15 30 -15 20 0 30 5 30 15 0 8 4 15 9 15
5 0 12 16 15 35 4 19 11 35 16 35 5 0 12 9 15 21 8 26 83 99 100 99 8 0 15 6
18 13 2 8 29 12 86 12 68 0 84 -3 92 -17 6 -10 17 -18 24 -18 8 0 15 -5 15
-11 0 -7 11 -22 25 -35 14 -13 28 -38 32 -56 3 -18 10 -36 15 -39 5 -3 12 -25
15 -48 3 -22 10 -41 14 -41 5 0 9 -14 9 -31 0 -45 -46 -88 -104 -95 -25 -4
-46 -11 -46 -15 0 -5 -34 -9 -75 -9 -41 0 -75 4 -75 9 0 5 -18 11 -40 15 -22
3 -40 11 -40 16 0 6 -6 10 -13 10 -14 0 -47 35 -47 50 0 6 4 10 9 10 5 0 12
11 15 25 4 14 16 35 27 46 l20 20 27 -31 c20 -23 35 -30 62 -30 34 0 70 26 70
50 0 6 6 13 14 16 8 3 17 17 21 32 4 15 12 31 18 35 9 6 9 10 0 14 -7 2 -13
11 -13 19 0 35 -55 -7 -66 -51 -3 -14 -10 -25 -15 -25 -5 0 -9 -7 -9 -15 0
-19 -29 -20 -36 -1 -3 8 -16 17 -30 20 -13 4 -24 11 -24 16 0 40 -113 -54
-126 -104 -3 -14 -10 -26 -15 -26 -5 0 -9 -11 -9 -25 0 -28 56 -89 92 -101 13
-3 26 -11 29 -16 3 -4 35 -11 72 -15 37 -3 67 -10 67 -14 0 -5 7 -9 15 -9 8 0
15 4 15 9 0 4 34 11 76 13 42 3 79 10 83 15 3 6 16 13 29 17 12 4 22 12 22 17
0 5 7 9 16 9 9 0 18 9 21 20 3 11 9 20 14 20 5 0 9 25 9 55 0 30 -4 55 -9 55
-5 0 -11 23 -15 50 -4 28 -11 50 -16 50 -4 0 -11 14 -15 30 -4 17 -11 30 -16
30 -5 0 -9 6 -9 14 0 18 -87 106 -105 106 -7 0 -15 5 -17 12 -5 13 -115 20
-175 11z"/>
</g>
</svg>
